<svg width="36" height="36" viewBox="0 0 36 36" fill="none" xmlns="http://www.w3.org/2000/svg">
<rect width="36" height="36" fill="white"/>
<path d="M6 19.5C6.825 19.5 7.5 18.825 7.5 18C7.5 17.175 6.825 16.5 6 16.5C5.175 16.5 4.5 17.175 4.5 18C4.5 18.825 5.175 19.5 6 19.5ZM6 25.5C6.825 25.5 7.5 24.825 7.5 24C7.5 23.175 6.825 22.5 6 22.5C5.175 22.5 4.5 23.175 4.5 24C4.5 24.825 5.175 25.5 6 25.5ZM6 13.5C6.825 13.5 7.5 12.825 7.5 12C7.5 11.175 6.825 10.5 6 10.5C5.175 10.5 4.5 11.175 4.5 12C4.5 12.825 5.175 13.5 6 13.5ZM12 19.5H30C30.825 19.5 31.5 18.825 31.5 18C31.5 17.175 30.825 16.5 30 16.5H12C11.175 16.5 10.5 17.175 10.5 18C10.5 18.825 11.175 19.5 12 19.5ZM12 25.5H30C30.825 25.5 31.5 24.825 31.5 24C31.5 23.175 30.825 22.5 30 22.5H12C11.175 22.5 10.5 23.175 10.5 24C10.5 24.825 11.175 25.5 12 25.5ZM10.5 12C10.5 12.825 11.175 13.5 12 13.5H30C30.825 13.5 31.5 12.825 31.5 12C31.5 11.175 30.825 10.5 30 10.5H12C11.175 10.5 10.5 11.175 10.5 12ZM6 19.5C6.825 19.5 7.5 18.825 7.5 18C7.5 17.175 6.825 16.5 6 16.5C5.175 16.5 4.5 17.175 4.5 18C4.5 18.825 5.175 19.5 6 19.5ZM6 25.5C6.825 25.5 7.5 24.825 7.5 24C7.5 23.175 6.825 22.5 6 22.5C5.175 22.5 4.5 23.175 4.5 24C4.5 24.825 5.175 25.5 6 25.5ZM6 13.5C6.825 13.5 7.5 12.825 7.5 12C7.5 11.175 6.825 10.5 6 10.5C5.175 10.5 4.5 11.175 4.5 12C4.5 12.825 5.175 13.5 6 13.5ZM12 19.5H30C30.825 19.5 31.5 18.825 31.5 18C31.5 17.175 30.825 16.5 30 16.5H12C11.175 16.5 10.5 17.175 10.5 18C10.5 18.825 11.175 19.5 12 19.5ZM12 25.5H30C30.825 25.5 31.5 24.825 31.5 24C31.5 23.175 30.825 22.5 30 22.5H12C11.175 22.5 10.5 23.175 10.5 24C10.5 24.825 11.175 25.5 12 25.5ZM10.5 12C10.5 12.825 11.175 13.5 12 13.5H30C30.825 13.5 31.5 12.825 31.5 12C31.5 11.175 30.825 10.5 30 10.5H12C11.175 10.5 10.5 11.175 10.5 12Z" fill="black" fill-opacity="0.5"/>
</svg>
